# xmcd CD database file
#
# Track frame offsets:
#	150
#	10936
#	21115
#	32180
#	43001
#	56011
#	69357
#	82200
#	92488
#	106372
#	120749
#	134676
#	151658
#	164556
#	178062
#	188769
#	200421
#	217567
#	242684
#	278199
#	293851
#	308360
#	320050
#	332347
#
# Disc length: 4593 seconds
#
# Revision: 0
# Processed by: cddbd v1.5.1PL0 Copyright (c) Steve Scherf et al.
# Submitted via: CDex 1.50
#
DISCID=4e11ef18
DTITLE=Sonny Stitt - Sax O' Bebop - CD2 - Sonnyside
DYEAR=1900
DGENRE=Jazz
TTITLE0=Red Shoes
TTITLE1=Be Bop Blues
TTITLE2=Royal Wedding
TTITLE3=Fine And Dandy
TTITLE4=Scamparoo
TTITLE5=Suede Jacquet
TTITLE6=Lion's Roar
TTITLE7=Relaxin'
TTITLE8=Afternoon In Paris
TTITLE9=Elora
TTITLE10=Teapot
TTITLE11=Blue Mode
TTITLE12=Blue Mode (Alternate Take)
TTITLE13=All God's Chillun Got Rhythm
TTITLE14=Sonnyside
TTITLE15=Bud's Blues
TTITLE16=Sunset
TTITLE17=Move
TTITLE18=Hot House
TTITLE19=Strike Up The Band
TTITLE20=I Want To Be Happy
TTITLE21=Taking A Chance On Love
TTITLE22=Fine And Dandy
TTITLE23=Fine And Dandy (Alternate Take)
EXTD=
EXTT0=
EXTT1=
EXTT2=
EXTT3=
EXTT4=
EXTT5=
EXTT6=
EXTT7=
EXTT8=
EXTT9=
EXTT10=
EXTT11=
EXTT12=
EXTT13=
EXTT14=
EXTT15=
EXTT16=
EXTT17=
EXTT18=
EXTT19=
EXTT20=
EXTT21=
EXTT22=
EXTT23=
PLAYORDER=
